<svg xmlns="http://www.w3.org/2000/svg" viewBox="0 0 93.25 14.65"><defs><style>.cls-1{fill:#fcf275;}</style></defs><title>Asset 1</title><g id="Layer_2" data-name="Layer 2"><g id="Layer_1-2" data-name="Layer 1"><path class="cls-1" d="M7.71,11.78l4.77,2.88L11.21,9.23l4.21-3.65L9.88,5.11,7.71,0,5.55,5.11,0,5.58,4.2,9.23,2.95,14.65Z"/><path class="cls-1" d="M27.17,11.78l4.77,2.88L30.67,9.23l4.21-3.65-5.55-.48L27.17,0,25,5.11l-5.55.48,4.2,3.65L22.4,14.65Z"/><path class="cls-1" d="M46.62,11.78l4.77,2.88L50.12,9.23l4.21-3.65-5.55-.48L46.62,0,44.46,5.11l-5.55.48,4.2,3.65-1.26,5.42Z"/><path class="cls-1" d="M66.08,11.78l4.77,2.88L69.58,9.23l4.21-3.65-5.55-.48L66.08,0,63.91,5.11l-5.55.48,4.2,3.65-1.26,5.42Z"/><path class="cls-1" d="M85.53,11.78l4.77,2.88L89,9.23l4.21-3.65L87.7,5.11,85.53,0,83.37,5.11l-5.55.48L82,9.23l-1.26,5.42Z"/></g></g></svg>