<svg xmlns="http://www.w3.org/2000/svg" viewBox="0 0 100 133.33"><defs><style>.cls-1{fill:#9708cc;}</style></defs><title>Asset 1</title><g id="Layer_2" data-name="Layer 2"><g id="Layer_1-2" data-name="Layer 1"><path class="cls-1" d="M11.11,77.78H88.89l-8.33-25H19.44l-8.33,25m69.44,27.78a8.33,8.33,0,1,0-8.33-8.33,8.33,8.33,0,0,0,8.33,8.33m-61.11,0a8.33,8.33,0,1,0-8.33-8.33,8.33,8.33,0,0,0,8.33,8.33M88.44,50,100,83.33v44.44a5.56,5.56,0,0,1-5.56,5.56H88.89a5.56,5.56,0,0,1-5.56-5.56v-5.56H16.67v5.56a5.56,5.56,0,0,1-5.56,5.56H5.56A5.56,5.56,0,0,1,0,127.78V83.33L11.56,50a8.38,8.38,0,0,1,7.89-5.56H80.56A8.38,8.38,0,0,1,88.44,50M50,0A44.65,44.65,0,0,1,81.39,13.06L73.5,20.94a33,33,0,0,0-47,0l-7.83-7.89A44.42,44.42,0,0,1,50,0m0,22.22a22.4,22.4,0,0,1,15.67,6.56l-7.89,7.89A11.08,11.08,0,0,0,50,33.33a11.39,11.39,0,0,0-7.78,3.33l-7.89-7.89A22.4,22.4,0,0,1,50,22.22Z"/></g></g></svg>