<svg xmlns="http://www.w3.org/2000/svg" viewBox="0 0 100 150"><defs><style>.cls-1{fill:#43cbff;}</style></defs><title>Asset 2</title><g id="Layer_2" data-name="Layer 2"><g id="Layer_1-2" data-name="Layer 1"><path class="cls-1" d="M12.5,0h75A12.5,12.5,0,0,1,100,12.5v125A12.5,12.5,0,0,1,87.5,150h-75A12.5,12.5,0,0,1,0,137.5V12.5A12.5,12.5,0,0,1,12.5,0M50,37.5A18.75,18.75,0,1,1,31.25,56.25,18.75,18.75,0,0,1,50,37.5M43.75,6.25v12.5h12.5V6.25H43.75M12.5,25v78.13C12.5,94.5,29.31,87.5,50,87.5s37.5,7,37.5,15.63V25h-75m43.75,87.5h-25V125h25v12.5L75,118.75,56.25,100Z"/></g></g></svg>